<svg width="33" height="30" viewBox="0 0 33 30" fill="none" xmlns="http://www.w3.org/2000/svg">
<path d="M11.3721 0V2.98828H21.1279V0H24.3506V2.98828H30.8545C31.3037 2.98828 31.6895 3.13477 32.0117 3.42773C32.334 3.7207 32.4951 4.08203 32.4951 4.51172V28.5059C32.4951 28.916 32.334 29.2676 32.0117 29.5605C31.6895 29.8535 31.3037 30 30.8545 30H1.61621C1.16699 30 0.786133 29.8535 0.473633 29.5605C0.161133 29.2676 0.00488281 28.916 0.00488281 28.5059V4.51172C0.00488281 4.08203 0.161133 3.7207 0.473633 3.42773C0.786133 3.13477 1.16699 2.98828 1.61621 2.98828H8.12012V0H11.3721ZM29.2432 15H3.25684V27.0117H29.2432V15ZM9.76074 17.9883V21.0059H6.50879V17.9883H9.76074ZM17.876 17.9883V21.0059H14.624V17.9883H17.876ZM25.9912 17.9883V21.0059H22.7393V17.9883H25.9912ZM8.12012 6.00586H3.25684V12.0117H29.2432V6.00586H24.3506V8.99414H21.1279V6.00586H11.3721V8.99414H8.12012V6.00586Z" fill="white"/>
<path d="M11.3721 0V2.98828H21.1279V0H24.3506V2.98828H30.8545C31.3037 2.98828 31.6895 3.13477 32.0117 3.42773C32.334 3.7207 32.4951 4.08203 32.4951 4.51172V28.5059C32.4951 28.916 32.334 29.2676 32.0117 29.5605C31.6895 29.8535 31.3037 30 30.8545 30H1.61621C1.16699 30 0.786133 29.8535 0.473633 29.5605C0.161133 29.2676 0.00488281 28.916 0.00488281 28.5059V4.51172C0.00488281 4.08203 0.161133 3.7207 0.473633 3.42773C0.786133 3.13477 1.16699 2.98828 1.61621 2.98828H8.12012V0H11.3721ZM29.2432 15H3.25684V27.0117H29.2432V15ZM9.76074 17.9883V21.0059H6.50879V17.9883H9.76074ZM17.876 17.9883V21.0059H14.624V17.9883H17.876ZM25.9912 17.9883V21.0059H22.7393V17.9883H25.9912ZM8.12012 6.00586H3.25684V12.0117H29.2432V6.00586H24.3506V8.99414H21.1279V6.00586H11.3721V8.99414H8.12012V6.00586Z" fill="url(#paint0_linear_202_710)"/>
<defs>
<linearGradient id="paint0_linear_202_710" x1="16.25" y1="30" x2="16.25" y2="0" gradientUnits="userSpaceOnUse">
<stop stop-color="#FEEBB3"/>
<stop offset="1" stop-color="#E3BA7C"/>
</linearGradient>
</defs>
</svg>
