<svg width="35" height="32" viewBox="0 0 35 32" fill="none" xmlns="http://www.w3.org/2000/svg">
<path d="M24.1305 30.9805C25.2148 31.0199 26.1439 31.0013 26.903 30.917C27.8214 30.8149 28.9094 30.3233 30.109 29.5957C31.3003 28.8731 32.2135 28.0083 32.6667 26.958L32.7516 26.7451L32.7565 26.7324C33.0837 25.7916 33.2834 24.9177 33.3288 24.124C33.3489 23.7717 33.3563 23.4617 33.3444 23.2061C33.3349 23.0029 33.3106 22.6659 33.1676 22.3799L33.1276 22.2988L33.0729 22.2266C32.8382 21.9137 32.5251 21.6905 32.2008 21.5283L31.278 21.0674C30.8903 20.8735 30.0319 20.4484 28.7057 19.7949C27.4023 19.1527 26.4956 18.7317 26.07 18.5898C25.6556 18.4517 25.238 18.3652 24.8307 18.3652C24.0632 18.3653 23.5647 18.8924 23.2702 19.3555C23.0101 19.6887 22.6113 20.1797 22.07 20.833C21.5207 21.4959 21.1496 21.9431 20.9557 22.1758L20.8805 22.2539C20.8749 22.2525 20.8687 22.251 20.862 22.249C20.8014 22.2314 20.7102 22.1952 20.5856 22.126L20.2731 21.9521L19.9567 22.0107C19.9799 22.0079 19.8878 22.0124 19.6198 21.8955C19.3244 21.7667 18.9252 21.5398 18.4118 21.1914C17.3691 20.4839 16.2817 19.6515 15.151 18.6904C14.0286 17.7364 13.0444 16.7785 12.195 15.8184L12.1813 15.8027C11.7416 15.3264 11.4259 14.929 11.2174 14.6084C10.9995 14.2731 10.9446 14.0901 10.9362 14.0312L10.9079 13.832L10.8034 13.6582C10.7907 13.637 10.7814 13.6169 10.7721 13.5996C10.819 13.5418 10.867 13.4938 10.9167 13.4541L11.0036 13.3848L11.0729 13.2979C11.3717 12.9243 11.7001 12.53 12.0583 12.1152H12.0592C12.4882 11.6185 12.8224 11.0692 13.0573 10.4707C13.2323 10.0989 13.3185 9.67764 13.2379 9.23438C13.188 8.95962 13.1121 8.69318 13.0094 8.43652L12.9792 8.3623L12.9381 8.29297C12.9345 8.28571 12.9119 8.24275 12.8659 8.14062C12.8165 8.03112 12.7523 7.88177 12.6725 7.68945C12.5132 7.30527 12.3001 6.76965 12.0319 6.08008C11.4971 4.7048 11.0475 3.63076 10.6881 2.86914L10.6891 2.86816C10.5358 2.51769 10.3614 2.19473 10.1569 1.92676C9.95698 1.66484 9.6818 1.39359 9.30826 1.24414C8.91973 1.08873 8.51463 1.00004 8.10025 1H6.3688C5.46131 1.00015 4.66836 1.48348 4.00162 2.14648V2.14551C1.56716 4.49602 0.560364 7.2336 1.1774 10.2754C1.74135 13.0548 2.77789 15.4522 4.30826 17.4375L4.34732 17.4883L4.39322 17.5342C4.37633 17.5173 4.4428 17.5931 4.64322 17.8779C4.8188 18.1274 5.05801 18.4806 5.36392 18.9395L5.36978 18.9473L5.37564 18.9561C6.02616 19.8911 6.91407 20.9662 8.02701 22.1768C9.16396 23.4134 10.5206 24.6591 12.0905 25.915L12.0963 25.9199L12.1032 25.9248C13.7165 27.1751 15.5076 28.201 17.4723 29.0029L17.486 29.0088C19.076 29.6293 20.4187 30.1058 21.5065 30.4336C22.5727 30.7549 23.4663 30.9562 24.1305 30.9805Z" stroke="black" stroke-width="2"/>
<path d="M24.1305 30.9805C25.2148 31.0199 26.1439 31.0013 26.903 30.917C27.8214 30.8149 28.9094 30.3233 30.109 29.5957C31.3003 28.8731 32.2135 28.0083 32.6667 26.958L32.7516 26.7451L32.7565 26.7324C33.0837 25.7916 33.2834 24.9177 33.3288 24.124C33.3489 23.7717 33.3563 23.4617 33.3444 23.2061C33.3349 23.0029 33.3106 22.6659 33.1676 22.3799L33.1276 22.2988L33.0729 22.2266C32.8382 21.9137 32.5251 21.6905 32.2008 21.5283L31.278 21.0674C30.8903 20.8735 30.0319 20.4484 28.7057 19.7949C27.4023 19.1527 26.4956 18.7317 26.07 18.5898C25.6556 18.4517 25.238 18.3652 24.8307 18.3652C24.0632 18.3653 23.5647 18.8924 23.2702 19.3555C23.0101 19.6887 22.6113 20.1797 22.07 20.833C21.5207 21.4959 21.1496 21.9431 20.9557 22.1758L20.8805 22.2539C20.8749 22.2525 20.8687 22.251 20.862 22.249C20.8014 22.2314 20.7102 22.1952 20.5856 22.126L20.2731 21.9521L19.9567 22.0107C19.9799 22.0079 19.8878 22.0124 19.6198 21.8955C19.3244 21.7667 18.9252 21.5398 18.4118 21.1914C17.3691 20.4839 16.2817 19.6515 15.151 18.6904C14.0286 17.7364 13.0444 16.7785 12.195 15.8184L12.1813 15.8027C11.7416 15.3264 11.4259 14.929 11.2174 14.6084C10.9995 14.2731 10.9446 14.0901 10.9362 14.0312L10.9079 13.832L10.8034 13.6582C10.7907 13.637 10.7814 13.6169 10.7721 13.5996C10.819 13.5418 10.867 13.4938 10.9167 13.4541L11.0036 13.3848L11.0729 13.2979C11.3717 12.9243 11.7001 12.53 12.0583 12.1152H12.0592C12.4882 11.6185 12.8224 11.0692 13.0573 10.4707C13.2323 10.0989 13.3185 9.67764 13.2379 9.23438C13.188 8.95962 13.1121 8.69318 13.0094 8.43652L12.9792 8.3623L12.9381 8.29297C12.9345 8.28571 12.9119 8.24275 12.8659 8.14062C12.8165 8.03112 12.7523 7.88177 12.6725 7.68945C12.5132 7.30527 12.3001 6.76965 12.0319 6.08008C11.4971 4.7048 11.0475 3.63076 10.6881 2.86914L10.6891 2.86816C10.5358 2.51769 10.3614 2.19473 10.1569 1.92676C9.95698 1.66484 9.6818 1.39359 9.30826 1.24414C8.91973 1.08873 8.51463 1.00004 8.10025 1H6.3688C5.46131 1.00015 4.66836 1.48348 4.00162 2.14648V2.14551C1.56716 4.49602 0.560364 7.2336 1.1774 10.2754C1.74135 13.0548 2.77789 15.4522 4.30826 17.4375L4.34732 17.4883L4.39322 17.5342C4.37633 17.5173 4.4428 17.5931 4.64322 17.8779C4.8188 18.1274 5.05801 18.4806 5.36392 18.9395L5.36978 18.9473L5.37564 18.9561C6.02616 19.8911 6.91407 20.9662 8.02701 22.1768C9.16396 23.4134 10.5206 24.6591 12.0905 25.915L12.0963 25.9199L12.1032 25.9248C13.7165 27.1751 15.5076 28.201 17.4723 29.0029L17.486 29.0088C19.076 29.6293 20.4187 30.1058 21.5065 30.4336C22.5727 30.7549 23.4663 30.9562 24.1305 30.9805Z" stroke="url(#paint0_linear_202_697)" stroke-width="2"/>
<defs>
<linearGradient id="paint0_linear_202_697" x1="17.1753" y1="30" x2="17.1753" y2="2" gradientUnits="userSpaceOnUse">
<stop stop-color="#FEEBB3"/>
<stop offset="1" stop-color="#E3BA7C"/>
</linearGradient>
</defs>
</svg>
