<svg width="30" height="30" viewBox="0 0 30 30" fill="none" xmlns="http://www.w3.org/2000/svg">
<path d="M25.5147 4.3975C22.4092 1.38969 19.0596 -0.0751582 15.4659 0.00296677C11.8526 0.0810918 8.70806 1.14555 6.03226 3.19633C3.35646 5.24711 1.51076 8.00102 0.495162 11.4581C-0.520538 14.9346 0.0263622 18.5479 2.13576 22.2979C2.13576 22.2979 2.02836 22.6983 1.81346 23.4991C1.57916 24.2999 1.33006 25.1837 1.06646 26.1505C0.802763 27.1172 0.563462 28.001 0.348662 28.8018C0.133762 29.6026 0.0263624 30.003 0.0263624 30.003L7.90726 27.9522C11.6768 29.9249 15.2706 30.3839 18.6885 29.3292C22.1065 28.2745 24.8165 26.4092 26.8184 23.7335C28.8204 21.0577 29.8409 17.9229 29.8799 14.3292C29.9385 10.7549 28.4835 7.44438 25.5147 4.3975Z" fill="white"/>
<path d="M25.5147 4.3975C22.4092 1.38969 19.0596 -0.0751582 15.4659 0.00296677C11.8526 0.0810918 8.70806 1.14555 6.03226 3.19633C3.35646 5.24711 1.51076 8.00102 0.495162 11.4581C-0.520538 14.9346 0.0263622 18.5479 2.13576 22.2979C2.13576 22.2979 2.02836 22.6983 1.81346 23.4991C1.57916 24.2999 1.33006 25.1837 1.06646 26.1505C0.802763 27.1172 0.563462 28.001 0.348662 28.8018C0.133762 29.6026 0.0263624 30.003 0.0263624 30.003L7.90726 27.9522C11.6768 29.9249 15.2706 30.3839 18.6885 29.3292C22.1065 28.2745 24.8165 26.4092 26.8184 23.7335C28.8204 21.0577 29.8409 17.9229 29.8799 14.3292C29.9385 10.7549 28.4835 7.44438 25.5147 4.3975Z" fill="url(#paint0_linear_4_9)"/>
<path d="M15.0172 27.4835C13.8062 27.4835 12.6148 27.3077 11.4429 26.9561C10.2711 26.6046 9.17726 26.1065 8.16166 25.462L3.38626 26.6924L4.67536 22.0635C3.95266 21.0089 3.39606 19.8712 3.00536 18.6505C2.61476 17.4297 2.42926 16.1749 2.44876 14.8858C2.42926 12.1124 3.17146 9.71 4.67536 7.67875C6.17926 5.66703 8.02986 4.20707 10.2271 3.29887C12.4244 2.39067 14.773 2.12211 17.273 2.49321C19.7535 2.84477 21.9703 4.00688 23.9234 5.97953C25.8961 7.95219 27.0679 10.1788 27.439 12.6592C27.7906 15.1397 27.5123 17.4786 26.6041 19.6758C25.6959 21.8731 24.2359 23.7237 22.2242 25.2276C20.2125 26.7315 17.8101 27.4835 15.0172 27.4835Z" fill="#1A0626"/>
<path d="M21.9512 18.0499C21.7559 17.9522 21.3213 17.7374 20.6475 17.4053C19.9737 17.0733 19.5489 16.878 19.3731 16.8194C19.1973 16.7608 19.041 16.7315 18.9043 16.7315C18.7676 16.7315 18.6407 16.8292 18.5235 17.0245C18.3868 17.2003 18.1768 17.459 17.8936 17.8008C17.6104 18.1426 17.42 18.3721 17.3223 18.4893C17.2051 18.626 17.083 18.6993 16.9561 18.709C16.8291 18.7188 16.6778 18.6749 16.502 18.5772C16.2871 18.6163 15.9063 18.4503 15.3594 18.0792C14.8125 17.7081 14.2461 17.2735 13.6602 16.7755C13.0743 16.2774 12.5567 15.7745 12.1075 15.2667C11.6387 14.7589 11.3848 14.3682 11.3457 14.0948C11.2285 13.8995 11.2041 13.7432 11.2725 13.626C11.3409 13.5089 11.4239 13.4112 11.5215 13.3331C11.6778 13.1378 11.8487 12.9327 12.0342 12.7178C12.2198 12.503 12.3614 12.2686 12.459 12.0147C12.5176 11.8975 12.5371 11.7852 12.5176 11.6778C12.4981 11.5704 12.4688 11.4678 12.4297 11.3702C12.3711 11.2725 12.2051 10.8721 11.9317 10.169C11.6582 9.46585 11.4336 8.92874 11.2578 8.55765C11.1211 8.24515 10.9795 8.0596 10.833 8.00101C10.6866 7.94241 10.545 7.91312 10.4082 7.91312C10.0957 7.91312 9.80276 7.91312 9.52926 7.91312C9.25586 7.91312 8.97266 8.0596 8.67966 8.35257C7.54686 9.44632 7.11716 10.6671 7.39066 12.0147C7.66406 13.3624 8.16206 14.5049 8.88476 15.4424C8.94336 15.501 9.12887 15.7647 9.44137 16.2335C9.75387 16.6827 10.1885 17.21 10.7451 17.8155C11.3018 18.421 11.9707 19.0362 12.752 19.6612C13.5332 20.2667 14.4024 20.7647 15.3594 21.1553C16.961 21.7803 18.0303 22.1026 18.5674 22.1221C19.1045 22.1417 19.5489 22.1319 19.9004 22.0928C20.252 22.0538 20.7256 21.8536 21.3213 21.4922C21.917 21.1309 22.293 20.7354 22.4493 20.3057C22.6055 19.8565 22.6934 19.461 22.7129 19.1192C22.7325 18.7774 22.7227 18.5674 22.6836 18.4893C22.625 18.4112 22.5371 18.3428 22.42 18.2842C22.3028 18.2256 22.1465 18.1475 21.9512 18.0499Z" fill="#F1F1F1"/>
<path d="M21.9512 18.0499C21.7559 17.9522 21.3213 17.7374 20.6475 17.4053C19.9737 17.0733 19.5489 16.878 19.3731 16.8194C19.1973 16.7608 19.041 16.7315 18.9043 16.7315C18.7676 16.7315 18.6407 16.8292 18.5235 17.0245C18.3868 17.2003 18.1768 17.459 17.8936 17.8008C17.6104 18.1426 17.42 18.3721 17.3223 18.4893C17.2051 18.626 17.083 18.6993 16.9561 18.709C16.8291 18.7188 16.6778 18.6749 16.502 18.5772C16.2871 18.6163 15.9063 18.4503 15.3594 18.0792C14.8125 17.7081 14.2461 17.2735 13.6602 16.7755C13.0743 16.2774 12.5567 15.7745 12.1075 15.2667C11.6387 14.7589 11.3848 14.3682 11.3457 14.0948C11.2285 13.8995 11.2041 13.7432 11.2725 13.626C11.3409 13.5089 11.4239 13.4112 11.5215 13.3331C11.6778 13.1378 11.8487 12.9327 12.0342 12.7178C12.2198 12.503 12.3614 12.2686 12.459 12.0147C12.5176 11.8975 12.5371 11.7852 12.5176 11.6778C12.4981 11.5704 12.4688 11.4678 12.4297 11.3702C12.3711 11.2725 12.2051 10.8721 11.9317 10.169C11.6582 9.46585 11.4336 8.92874 11.2578 8.55765C11.1211 8.24515 10.9795 8.0596 10.833 8.00101C10.6866 7.94241 10.545 7.91312 10.4082 7.91312C10.0957 7.91312 9.80276 7.91312 9.52926 7.91312C9.25586 7.91312 8.97266 8.0596 8.67966 8.35257C7.54686 9.44632 7.11716 10.6671 7.39066 12.0147C7.66406 13.3624 8.16206 14.5049 8.88476 15.4424C8.94336 15.501 9.12887 15.7647 9.44137 16.2335C9.75387 16.6827 10.1885 17.21 10.7451 17.8155C11.3018 18.421 11.9707 19.0362 12.752 19.6612C13.5332 20.2667 14.4024 20.7647 15.3594 21.1553C16.961 21.7803 18.0303 22.1026 18.5674 22.1221C19.1045 22.1417 19.5489 22.1319 19.9004 22.0928C20.252 22.0538 20.7256 21.8536 21.3213 21.4922C21.917 21.1309 22.293 20.7354 22.4493 20.3057C22.6055 19.8565 22.6934 19.461 22.7129 19.1192C22.7325 18.7774 22.7227 18.5674 22.6836 18.4893C22.625 18.4112 22.5371 18.3428 22.42 18.2842C22.3028 18.2256 22.1465 18.1475 21.9512 18.0499Z" fill="url(#paint1_linear_4_9)"/>
<defs>
<linearGradient id="paint0_linear_4_9" x1="14.9408" y1="30.003" x2="14.9408" y2="-1.78832e-06" gradientUnits="userSpaceOnUse">
<stop stop-color="#FEEBB3"/>
<stop offset="1" stop-color="#E3BA7C"/>
</linearGradient>
<linearGradient id="paint1_linear_4_9" x1="15.0168" y1="22.1319" x2="15.0168" y2="7.91312" gradientUnits="userSpaceOnUse">
<stop stop-color="#FEEBB3"/>
<stop offset="1" stop-color="#E3BA7C"/>
</linearGradient>
</defs>
</svg>
